<svg width="28" height="25" viewBox="0 0 28 25" fill="none" xmlns="http://www.w3.org/2000/svg">
<rect width="28" height="25" rx="5" fill="#3F5876"/>
<rect x="16" y="5" width="6" height="5" rx="2.5" fill="white"/>
<path d="M4 8C4 5.79086 5.79086 4 8 4H10C12.2091 4 14 5.79086 14 8C14 10.2091 12.2091 12 10 12H8C5.79086 12 4 10.2091 4 8Z" fill="#D9D9D9"/>
<path d="M14 16C14 13.7909 15.7909 12 18 12H19C21.2091 12 23 13.7909 23 16C23 18.2091 21.2091 20 19 20H18C15.7909 20 14 18.2091 14 16Z" fill="#D9D9D9"/>
<rect x="5" y="14" width="7" height="6" rx="3" fill="white"/>
</svg>
